<svg version="1.0" id="BJB9qKc0G" xmlns="http://www.w3.org/2000/svg" xmlns:xlink="http://www.w3.org/1999/xlink" x="0px" y="0px" viewBox="0 0 300 100" enable-background="new 0 0 300 100" xml:space="preserve"><style>@-webkit-keyframes SyZScqF9RM_HyiD3K5AG_Animation{0%{-webkit-transform: translate(40px, 0px);transform: translate(40px, 0px);}50%{-webkit-transform: translate(-40px, 0px);transform: translate(-40px, 0px);}100%{-webkit-transform: translate(40px, 0px);transform: translate(40px, 0px);}}@keyframes SyZScqF9RM_HyiD3K5AG_Animation{0%{-webkit-transform: translate(40px, 0px);transform: translate(40px, 0px);}50%{-webkit-transform: translate(-40px, 0px);transform: translate(-40px, 0px);}100%{-webkit-transform: translate(40px, 0px);transform: translate(40px, 0px);}}@-webkit-keyframes rkMHcqt90M_rJZwnK90f_Animation{0%{-webkit-transform: translate(-40px, 0px);transform: translate(-40px, 0px);}50%{-webkit-transform: translate(40px, 0px);transform: translate(40px, 0px);}100%{-webkit-transform: translate(-40px, 0px);transform: translate(-40px, 0px);}}@keyframes rkMHcqt90M_rJZwnK90f_Animation{0%{-webkit-transform: translate(-40px, 0px);transform: translate(-40px, 0px);}50%{-webkit-transform: translate(40px, 0px);transform: translate(40px, 0px);}100%{-webkit-transform: translate(-40px, 0px);transform: translate(-40px, 0px);}}#BJB9qKc0G *{-webkit-animation-duration: 10s;animation-duration: 10s;-webkit-animation-iteration-count: infinite;animation-iteration-count: infinite;-webkit-animation-timing-function: cubic-bezier(0, 0, 1, 1);animation-timing-function: cubic-bezier(0, 0, 1, 1);}#SJgS9qY50z{fill: #662D91;}#SyZScqF9RM{fill: #562D8C;}#rkMHcqt90M{fill: #4D2272;}#rkMHcqt90M_SJaicY5RM{-webkit-transform-origin: 50% 50%;transform-origin: 50% 50%;transform-box: fill-box;-webkit-transform: translate(-40px, 0px);transform: translate(-40px, 0px);}#rkMHcqt90M_rJZwnK90f{-webkit-animation-name: rkMHcqt90M_rJZwnK90f_Animation;animation-name: rkMHcqt90M_rJZwnK90f_Animation;-webkit-transform-origin: 50% 50%;transform-origin: 50% 50%;transform-box: fill-box;-webkit-transform: translate(-40px, 0px);transform: translate(-40px, 0px);}#SyZScqF9RM_HyiD3K5AG{-webkit-animation-name: SyZScqF9RM_HyiD3K5AG_Animation;animation-name: SyZScqF9RM_HyiD3K5AG_Animation;-webkit-transform-origin: 50% 50%;transform-origin: 50% 50%;transform-box: fill-box;-webkit-transform: translate(40px, 0px);transform: translate(40px, 0px);-webkit-animation-timing-function: cubic-bezier(0.42, 0, 0.58, 1);animation-timing-function: cubic-bezier(0.42, 0, 0.58, 1);}</style>
<polygon points="300,100 0,100 0,79.333 0,0 300,0 " id="SJgS9qY50z"/>
<g id="SyZScqF9RM_HyiD3K5AG" data-animator-group="true" data-animator-type="0"><path d="M340,49.702c-10.673-3.43-21.245-13.373-33.232-10.787c-12.044,2.598-17.395,17.396-25.898,24.444&#10;&#9;c-12.657,10.488-28.972-6.779-39.528-12.633c-12.72-7.052-26.154-14.158-41.169-11.878c-23.504,3.568-43.619,32.165-68.447,20.819&#10;&#9;c-15.411-7.041-25.837-22.667-43.741-24.235c-22.398-1.962-40.007,18.767-60.738,24.282c-11.668,3.105-15.302-9.915-20.617-17.887&#10;&#9;c-4.13-6.195-8.752-12.806-15.098-16.709c-3.237-1.99-7.666-7.181-11.428-7.737c-2.671-0.395-7.626,1.425-10.471,1.755&#10;&#9;c-5.324,0.617-6.975,5.308-9.632,9.375V92h380" id="SyZScqF9RM"/></g>
<g id="rkMHcqt90M_rJZwnK90f" data-animator-group="true" data-animator-type="0"><path d="M-40.167,65.66c10.691-3.436,21.199-13.38,33.208-10.79c12.063,2.603,17.383,17.436,25.902,24.496&#10;&#9;c12.678,10.507,29.001-6.788,39.577-12.651c12.741-7.064,26.189-14.182,41.23-11.897c23.545,3.575,43.691,32.221,68.563,20.856&#10;&#9;c15.437-7.055,25.88-22.706,43.815-24.277c22.437-1.966,40.075,18.8,60.842,24.325c11.689,3.11,15.329-9.932,20.653-17.918&#10;&#9;c4.138-6.206,8.766-12.828,15.123-16.738c3.242-1.994,7.679-7.193,11.448-7.75c2.676-0.396,7.474,1.427,10.323,1.758&#10;&#9;c5.333,0.618,7.482,5.317,9.482,9.392V108H-40" id="rkMHcqt90M"/></g>
<script>(function(){var a=document.querySelector('#BJB9qKc0G'),b=a.querySelectorAll('style'),c=function(d){b.forEach(function(f){var g=f.textContent;g&amp;&amp;(f.textContent=g.replace(/transform-box:[^;\r\n]*/gi,'transform-box: '+d))})};c('initial'),window.requestAnimationFrame(function(){return c('fill-box')})})();</script></svg>