<?xml version="1.0" encoding="utf-8"?>
<!-- Generator: Adobe Illustrator 22.0.1, SVG Export Plug-In . SVG Version: 6.00 Build 0)  -->
<svg version="1.1" id="Layer_1" xmlns="http://www.w3.org/2000/svg" xmlns:xlink="http://www.w3.org/1999/xlink" x="0px" y="0px"
	 viewBox="0 0 512 512" style="enable-background:new 0 0 512 512;" xml:space="preserve">
<style type="text/css">
	.st0{fill:#FF7F50;}
</style>
<path class="st0" d="M205.6,273.9c-1.1,0-2,0.9-2,2c0,1.1,0.9,2,2,2c1.1,0,2-0.9,2-2C207.6,274.8,206.7,273.9,205.6,273.9z
	 M225.6,253.9c-1.1,0-2,0.9-2,2c0,1.1,0.9,2,2,2c1.1,0,2-0.9,2-2C227.6,254.7,226.7,253.9,225.6,253.9z M225.6,334c-1.1,0-2,0.9-2,2
	c0,1.1,0.9,2,2,2c1.1,0,2-0.9,2-2C227.6,334.9,226.7,334,225.6,334z M225.6,293.9c-1.1,0-2,0.9-2,2c0,1.1,0.9,2,2,2c1.1,0,2-0.9,2-2
	C227.6,294.8,226.7,293.9,225.6,293.9z M225.6,273.9c-1.1,0-2,0.9-2,2c0,1.1,0.9,2,2,2c1.1,0,2-0.9,2-2
	C227.6,274.8,226.7,273.9,225.6,273.9z M225.6,314c-1.1,0-2,0.9-2,2c0,1.1,0.9,2,2,2c1.1,0,2-0.9,2-2
	C227.6,314.9,226.7,314,225.6,314z M205.6,233.8c-1.1,0-2,0.9-2,2s0.9,2,2,2c1.1,0,2-0.9,2-2S206.7,233.8,205.6,233.8z M205.6,253.9
	c-1.1,0-2,0.9-2,2c0,1.1,0.9,2,2,2c1.1,0,2-0.9,2-2C207.6,254.7,206.7,253.9,205.6,253.9z M205.6,213.8c-1.1,0-2,0.9-2,2
	c0,1.1,0.9,2,2,2c1.1,0,2-0.9,2-2C207.6,214.7,206.7,213.8,205.6,213.8z M205.6,193.7c-1.1,0-2,0.9-2,2c0,1.1,0.9,2,2,2
	c1.1,0,2-0.9,2-2C207.6,194.6,206.7,193.7,205.6,193.7z M205.6,173.7c-1.1,0-2,0.9-2,2c0,1.1,0.9,2,2,2c1.1,0,2-0.9,2-2
	C207.6,174.6,206.7,173.7,205.6,173.7z M245.6,273.9c-1.1,0-2,0.9-2,2c0,1.1,0.9,2,2,2s2-0.9,2-2
	C247.6,274.8,246.7,273.9,245.6,273.9z M245.6,253.9c-1.1,0-2,0.9-2,2c0,1.1,0.9,2,2,2s2-0.9,2-2
	C247.6,254.7,246.7,253.9,245.6,253.9z M245.6,213.8c-1.1,0-2,0.9-2,2c0,1.1,0.9,2,2,2s2-0.9,2-2
	C247.6,214.7,246.7,213.8,245.6,213.8z M245.6,293.9c-1.1,0-2,0.9-2,2c0,1.1,0.9,2,2,2s2-0.9,2-2
	C247.6,294.8,246.7,293.9,245.6,293.9z M225.6,233.8c-1.1,0-2,0.9-2,2s0.9,2,2,2c1.1,0,2-0.9,2-2S226.7,233.8,225.6,233.8z
	 M245.6,233.8c-1.1,0-2,0.9-2,2s0.9,2,2,2s2-0.9,2-2S246.7,233.8,245.6,233.8z M225.6,213.8c-1.1,0-2,0.9-2,2c0,1.1,0.9,2,2,2
	c1.1,0,2-0.9,2-2C227.6,214.7,226.7,213.8,225.6,213.8z M245.6,314c-1.1,0-2,0.9-2,2c0,1.1,0.9,2,2,2s2-0.9,2-2
	C247.6,314.9,246.7,314,245.6,314z M225.6,193.7c-1.1,0-2,0.9-2,2c0,1.1,0.9,2,2,2c1.1,0,2-0.9,2-2
	C227.6,194.6,226.7,193.7,225.6,193.7z M245.6,193.7c-1.1,0-2,0.9-2,2c0,1.1,0.9,2,2,2s2-0.9,2-2
	C247.6,194.6,246.7,193.7,245.6,193.7z M225.6,173.7c-1.1,0-2,0.9-2,2c0,1.1,0.9,2,2,2c1.1,0,2-0.9,2-2
	C227.6,174.6,226.7,173.7,225.6,173.7z M245.6,334c-1.1,0-2,0.9-2,2c0,1.1,0.9,2,2,2s2-0.9,2-2C247.6,334.9,246.7,334,245.6,334z
	 M165.5,253.9c-1.1,0-2,0.9-2,2c0,1.1,0.9,2,2,2s2-0.9,2-2C167.5,254.7,166.6,253.9,165.5,253.9z M165.5,233.8c-1.1,0-2,0.9-2,2
	s0.9,2,2,2s2-0.9,2-2S166.6,233.8,165.5,233.8z M185.5,334c-1.1,0-2,0.9-2,2c0,1.1,0.9,2,2,2c1.1,0,2-0.9,2-2
	C187.5,334.9,186.6,334,185.5,334z M165.5,173.7c-1.1,0-2,0.9-2,2c0,1.1,0.9,2,2,2s2-0.9,2-2C167.5,174.6,166.6,173.7,165.5,173.7z
	 M165.5,193.7c-1.1,0-2,0.9-2,2c0,1.1,0.9,2,2,2s2-0.9,2-2C167.5,194.6,166.6,193.7,165.5,193.7z M165.5,213.8c-1.1,0-2,0.9-2,2
	c0,1.1,0.9,2,2,2s2-0.9,2-2C167.5,214.7,166.6,213.8,165.5,213.8z M345.8,177.7c1.1,0,2-0.9,2-2c0-1.1-0.9-2-2-2c-1.1,0-2,0.9-2,2
	C343.8,176.8,344.7,177.7,345.8,177.7z M165.5,334c-1.1,0-2,0.9-2,2c0,1.1,0.9,2,2,2s2-0.9,2-2C167.5,334.9,166.6,334,165.5,334z
	 M165.5,314c-1.1,0-2,0.9-2,2c0,1.1,0.9,2,2,2s2-0.9,2-2C167.5,314.9,166.6,314,165.5,314z M165.5,293.9c-1.1,0-2,0.9-2,2
	c0,1.1,0.9,2,2,2s2-0.9,2-2C167.5,294.8,166.6,293.9,165.5,293.9z M165.5,273.9c-1.1,0-2,0.9-2,2c0,1.1,0.9,2,2,2s2-0.9,2-2
	C167.5,274.8,166.6,273.9,165.5,273.9z M205.6,314c-1.1,0-2,0.9-2,2c0,1.1,0.9,2,2,2c1.1,0,2-0.9,2-2
	C207.6,314.9,206.7,314,205.6,314z M185.5,173.7c-1.1,0-2,0.9-2,2c0,1.1,0.9,2,2,2c1.1,0,2-0.9,2-2
	C187.5,174.6,186.6,173.7,185.5,173.7z M185.5,193.7c-1.1,0-2,0.9-2,2c0,1.1,0.9,2,2,2c1.1,0,2-0.9,2-2
	C187.5,194.6,186.6,193.7,185.5,193.7z M205.6,293.9c-1.1,0-2,0.9-2,2c0,1.1,0.9,2,2,2c1.1,0,2-0.9,2-2
	C207.6,294.8,206.7,293.9,205.6,293.9z M205.6,334c-1.1,0-2,0.9-2,2c0,1.1,0.9,2,2,2c1.1,0,2-0.9,2-2
	C207.6,334.9,206.7,334,205.6,334z M185.5,213.8c-1.1,0-2,0.9-2,2c0,1.1,0.9,2,2,2c1.1,0,2-0.9,2-2
	C187.5,214.7,186.6,213.8,185.5,213.8z M185.5,293.9c-1.1,0-2,0.9-2,2c0,1.1,0.9,2,2,2c1.1,0,2-0.9,2-2
	C187.5,294.8,186.6,293.9,185.5,293.9z M185.5,233.8c-1.1,0-2,0.9-2,2s0.9,2,2,2c1.1,0,2-0.9,2-2S186.6,233.8,185.5,233.8z
	 M185.5,314c-1.1,0-2,0.9-2,2c0,1.1,0.9,2,2,2c1.1,0,2-0.9,2-2C187.5,314.9,186.6,314,185.5,314z M185.5,273.9c-1.1,0-2,0.9-2,2
	c0,1.1,0.9,2,2,2c1.1,0,2-0.9,2-2C187.5,274.8,186.6,273.9,185.5,273.9z M185.5,253.9c-1.1,0-2,0.9-2,2c0,1.1,0.9,2,2,2
	c1.1,0,2-0.9,2-2C187.5,254.7,186.6,253.9,185.5,253.9z M305.7,253.9c-1.1,0-2,0.9-2,2c0,1.1,0.9,2,2,2c1.1,0,2-0.9,2-2
	C307.7,254.7,306.8,253.9,305.7,253.9z M325.8,273.9c-1.1,0-2,0.9-2,2c0,1.1,0.9,2,2,2c1.1,0,2-0.9,2-2
	C327.8,274.8,326.9,273.9,325.8,273.9z M325.8,293.9c-1.1,0-2,0.9-2,2c0,1.1,0.9,2,2,2c1.1,0,2-0.9,2-2
	C327.8,294.8,326.9,293.9,325.8,293.9z M325.8,253.9c-1.1,0-2,0.9-2,2c0,1.1,0.9,2,2,2c1.1,0,2-0.9,2-2
	C327.8,254.7,326.9,253.9,325.8,253.9z M325.8,314c-1.1,0-2,0.9-2,2c0,1.1,0.9,2,2,2c1.1,0,2-0.9,2-2
	C327.8,314.9,326.9,314,325.8,314z M325.8,233.8c-1.1,0-2,0.9-2,2s0.9,2,2,2c1.1,0,2-0.9,2-2S326.9,233.8,325.8,233.8z M305.7,173.7
	c-1.1,0-2,0.9-2,2c0,1.1,0.9,2,2,2c1.1,0,2-0.9,2-2C307.7,174.6,306.8,173.7,305.7,173.7z M325.8,334c-1.1,0-2,0.9-2,2
	c0,1.1,0.9,2,2,2c1.1,0,2-0.9,2-2C327.8,334.9,326.9,334,325.8,334z M305.7,213.8c-1.1,0-2,0.9-2,2c0,1.1,0.9,2,2,2c1.1,0,2-0.9,2-2
	C307.7,214.7,306.8,213.8,305.7,213.8z M305.7,233.8c-1.1,0-2,0.9-2,2s0.9,2,2,2c1.1,0,2-0.9,2-2S306.8,233.8,305.7,233.8z
	 M305.7,193.7c-1.1,0-2,0.9-2,2c0,1.1,0.9,2,2,2c1.1,0,2-0.9,2-2C307.7,194.6,306.8,193.7,305.7,193.7z M305.7,273.9
	c-1.1,0-2,0.9-2,2c0,1.1,0.9,2,2,2c1.1,0,2-0.9,2-2C307.7,274.8,306.8,273.9,305.7,273.9z M325.8,213.8c-1.1,0-2,0.9-2,2
	c0,1.1,0.9,2,2,2c1.1,0,2-0.9,2-2C327.8,214.7,326.9,213.8,325.8,213.8z M245.6,173.7c-1.1,0-2,0.9-2,2c0,1.1,0.9,2,2,2s2-0.9,2-2
	C247.6,174.6,246.7,173.7,245.6,173.7z M345.8,273.9c-1.1,0-2,0.9-2,2c0,1.1,0.9,2,2,2c1.1,0,2-0.9,2-2
	C347.8,274.8,346.9,273.9,345.8,273.9z M345.8,233.8c-1.1,0-2,0.9-2,2s0.9,2,2,2c1.1,0,2-0.9,2-2S346.9,233.8,345.8,233.8z
	 M345.8,193.7c-1.1,0-2,0.9-2,2c0,1.1,0.9,2,2,2c1.1,0,2-0.9,2-2C347.8,194.6,346.9,193.7,345.8,193.7z M345.8,213.8
	c-1.1,0-2,0.9-2,2c0,1.1,0.9,2,2,2c1.1,0,2-0.9,2-2C347.8,214.7,346.9,213.8,345.8,213.8z M325.8,193.7c-1.1,0-2,0.9-2,2
	c0,1.1,0.9,2,2,2c1.1,0,2-0.9,2-2C327.8,194.6,326.9,193.7,325.8,193.7z M345.8,334c-1.1,0-2,0.9-2,2c0,1.1,0.9,2,2,2
	c1.1,0,2-0.9,2-2C347.8,334.9,346.9,334,345.8,334z M325.8,173.7c-1.1,0-2,0.9-2,2c0,1.1,0.9,2,2,2c1.1,0,2-0.9,2-2
	C327.8,174.6,326.9,173.7,325.8,173.7z M345.8,293.9c-1.1,0-2,0.9-2,2c0,1.1,0.9,2,2,2c1.1,0,2-0.9,2-2
	C347.8,294.8,346.9,293.9,345.8,293.9z M345.8,314c-1.1,0-2,0.9-2,2c0,1.1,0.9,2,2,2c1.1,0,2-0.9,2-2
	C347.8,314.9,346.9,314,345.8,314z M345.8,253.9c-1.1,0-2,0.9-2,2c0,1.1,0.9,2,2,2c1.1,0,2-0.9,2-2
	C347.8,254.7,346.9,253.9,345.8,253.9z M265.7,253.9c-1.1,0-2,0.9-2,2c0,1.1,0.9,2,2,2c1.1,0,2-0.9,2-2
	C267.7,254.7,266.8,253.9,265.7,253.9z M265.7,213.8c-1.1,0-2,0.9-2,2c0,1.1,0.9,2,2,2c1.1,0,2-0.9,2-2
	C267.7,214.7,266.8,213.8,265.7,213.8z M265.7,233.8c-1.1,0-2,0.9-2,2s0.9,2,2,2c1.1,0,2-0.9,2-2S266.8,233.8,265.7,233.8z
	 M265.7,173.7c-1.1,0-2,0.9-2,2c0,1.1,0.9,2,2,2c1.1,0,2-0.9,2-2C267.7,174.6,266.8,173.7,265.7,173.7z M265.7,193.7
	c-1.1,0-2,0.9-2,2c0,1.1,0.9,2,2,2c1.1,0,2-0.9,2-2C267.7,194.6,266.8,193.7,265.7,193.7z M285.7,334c-1.1,0-2,0.9-2,2
	c0,1.1,0.9,2,2,2c1.1,0,2-0.9,2-2C287.7,334.9,286.8,334,285.7,334z M265.7,334c-1.1,0-2,0.9-2,2c0,1.1,0.9,2,2,2c1.1,0,2-0.9,2-2
	C267.7,334.9,266.8,334,265.7,334z M265.7,314c-1.1,0-2,0.9-2,2c0,1.1,0.9,2,2,2c1.1,0,2-0.9,2-2C267.7,314.9,266.8,314,265.7,314z
	 M265.7,273.9c-1.1,0-2,0.9-2,2c0,1.1,0.9,2,2,2c1.1,0,2-0.9,2-2C267.7,274.8,266.8,273.9,265.7,273.9z M265.7,293.9
	c-1.1,0-2,0.9-2,2c0,1.1,0.9,2,2,2c1.1,0,2-0.9,2-2C267.7,294.8,266.8,293.9,265.7,293.9z M285.7,314c-1.1,0-2,0.9-2,2
	c0,1.1,0.9,2,2,2c1.1,0,2-0.9,2-2C287.7,314.9,286.8,314,285.7,314z M305.7,293.9c-1.1,0-2,0.9-2,2c0,1.1,0.9,2,2,2c1.1,0,2-0.9,2-2
	C307.7,294.8,306.8,293.9,305.7,293.9z M285.7,173.7c-1.1,0-2,0.9-2,2c0,1.1,0.9,2,2,2c1.1,0,2-0.9,2-2
	C287.7,174.6,286.8,173.7,285.7,173.7z M285.7,193.7c-1.1,0-2,0.9-2,2c0,1.1,0.9,2,2,2c1.1,0,2-0.9,2-2
	C287.7,194.6,286.8,193.7,285.7,193.7z M305.7,334c-1.1,0-2,0.9-2,2c0,1.1,0.9,2,2,2c1.1,0,2-0.9,2-2
	C307.7,334.9,306.8,334,305.7,334z M305.7,314c-1.1,0-2,0.9-2,2c0,1.1,0.9,2,2,2c1.1,0,2-0.9,2-2C307.7,314.9,306.8,314,305.7,314z
	 M285.7,213.8c-1.1,0-2,0.9-2,2c0,1.1,0.9,2,2,2c1.1,0,2-0.9,2-2C287.7,214.7,286.8,213.8,285.7,213.8z M285.7,293.9
	c-1.1,0-2,0.9-2,2c0,1.1,0.9,2,2,2c1.1,0,2-0.9,2-2C287.7,294.8,286.8,293.9,285.7,293.9z M285.7,273.9c-1.1,0-2,0.9-2,2
	c0,1.1,0.9,2,2,2c1.1,0,2-0.9,2-2C287.7,274.8,286.8,273.9,285.7,273.9z M285.7,233.8c-1.1,0-2,0.9-2,2s0.9,2,2,2c1.1,0,2-0.9,2-2
	S286.8,233.8,285.7,233.8z M285.7,253.9c-1.1,0-2,0.9-2,2c0,1.1,0.9,2,2,2c1.1,0,2-0.9,2-2C287.7,254.7,286.8,253.9,285.7,253.9z"/>
</svg>
