<?xml version="1.0" encoding="utf-8"?>
<!-- Generator: Adobe Illustrator 22.0.1, SVG Export Plug-In . SVG Version: 6.00 Build 0)  -->
<svg version="1.1" id="Layer_1" xmlns="http://www.w3.org/2000/svg" xmlns:xlink="http://www.w3.org/1999/xlink" x="0px" y="0px"
	 viewBox="0 0 512 512" style="enable-background:new 0 0 512 512;" xml:space="preserve">
<style type="text/css">
	.st0{clip-path:url(#SVGID_2_);}
	.st1{fill:url(#SVGID_3_);}
	.st2{clip-path:url(#SVGID_2_);fill:#FF7F50;}
</style>
<g>
	<defs>
		<rect id="SVGID_1_" width="512" height="512"/>
	</defs>
	<clipPath id="SVGID_2_">
		<use xlink:href="#SVGID_1_"  style="overflow:visible;"/>
	</clipPath>
	<g class="st0">
		
			<radialGradient id="SVGID_3_" cx="375" cy="250" r="520.3262" gradientTransform="matrix(0.6827 0 0 1.024 0 0)" gradientUnits="userSpaceOnUse">
			<stop  offset="0" style="stop-color:#171C59"/>
			<stop  offset="1" style="stop-color:#111426"/>
		</radialGradient>
		<rect y="0" class="st1" width="512" height="512"/>
	</g>
	<path class="st2" d="M45.1,568H34.8v-87.2h-46.3v-10.3h46.3v-14.1c0-12.2,9.9-22.1,22.1-22.1c12.2,0,22.1,9.9,22.1,22.1v2.3
		c0,12.2-9.9,22.1-22.1,22.1H45.1V568z M45.1,470.5h11.8c6.5,0,11.8-5.3,11.8-11.8v-2.3c0-6.5-5.3-11.8-11.8-11.8
		c-6.5,0-11.8,5.3-11.8,11.8V470.5z"/>
</g>
</svg>
